# xmcd CD database file
#
# Track frame offsets:
#	150
#	13257
#	24940
#	38090
#	50925
#	64030
#	74707
#	86255
#	98115
#	111838
#	127480
#	141630
#	153043
#
# Disc length: 2206 seconds
#
# Revision: 1
# Processed by: cddbd v1.5.1PL0 Copyright (c) Steve Scherf et al.
# Submitted via: CDex 1.50
#
DISCID=bc089c0d
DTITLE=Sonny Boy Williamson - Nine Below Zero
DYEAR=1990
DGENRE=Blues
TTITLE0=Work With Me
TTITLE1=Don't Start Me Talkin'
TTITLE2=Let Me Explain
TTITLE3=Keep It To Yourself
TTITLE4=Have You Ever Been In Love
TTITLE5=Fattening Frogs For Snakes
TTITLE6=Born Blind
TTITLE7=Ninety Nine
TTITLE8=Lonesome Cabin
TTITLE9=Nine Below Zero
TTITLE10=Help Me
TTITLE11=Bring It On Home
TTITLE12=One Way Out
EXTD=YEAR: 1990
EXTT0=
EXTT1=
EXTT2=
EXTT3=
EXTT4=
EXTT5=
EXTT6=
EXTT7=
EXTT8=
EXTT9=
EXTT10=
EXTT11=
EXTT12=
PLAYORDER=
